# xmcd CD database file generated by Grip 3.2.0
# 
# Track frame offsets:
#       182
#       29192
#       45100
#       60857
#       76447
#       96452
#       115875
#       132002
#       147145
#       175552
#       196635
#       214207
#       240405
#       270072
#       294090
#       316312
# 
# Disc length: 4561 seconds
# 
# Revision: 8
# Processed by: cddbd v1.5.2PL0 Copyright (c) Steve Scherf et al.
# Submitted via: Grip 3.2.0
# 
DISCID=ca11cf10
DTITLE=Bar-Kays - The Best of Bar-Kays
DYEAR=1993
DGENRE=Funk
TTITLE0=Too Hot to Stop
TTITLE1=Cozy
TTITLE2=Shake Your Rump to the Funk
TTITLE3=Attitudes
TTITLE4=Shut the Funk Up
TTITLE5=Standing on the Outside
TTITLE6=Shine
TTITLE7=I'll Dance
TTITLE8=Move Your Boogie Body
TTITLE9=Deliver Us
TTITLE10=Hit and Run
TTITLE11=Anticipation
TTITLE12=Freakshow on the Dance Floor
TTITLE13=Sexomatic
TTITLE14=Certified True
TTITLE15=Struck By You
EXTD=
EXTT0=
EXTT1=
EXTT2=
EXTT3=
EXTT4=
EXTT5=
EXTT6=
EXTT7=
EXTT8=
EXTT9=
EXTT10=
EXTT11=
EXTT12=
EXTT13=
EXTT14=
EXTT15=
PLAYORDER=
